<svg version="1.2" xmlns="http://www.w3.org/2000/svg" viewBox="0 0 182 26" width="182" height="26">
	<title>logo</title>
	<style>
		.s0 { fill: #212121 } 
	</style>
	<path id="PressMart." class="s0" aria-label="PressMart."  d="m7.7 11.5v-6.2h3.1c2.2 0 3.2 1.2 3.2 3.1 0 1.9-1 3.1-3.2 3.1zm12-3.1c0-4.5-2.8-7.9-8.5-7.9h-9.2v24.5h5.7v-8.8h3.5c5.9 0 8.5-3.8 8.5-7.8zm8.6 7.6c0-3.4 1.6-4.4 4.3-4.4h1.5v-6.3c-2.5 0-4.5 1.4-5.8 3.5v-3.3h-5.6v19.5h5.6zm16.7-5.9c1.9 0 3.5 1.2 3.5 3.3h-7.1c0.3-2.1 1.7-3.3 3.6-3.3zm8.8 8.5h-6c-0.5 1-1.3 1.9-2.9 1.9-1.9 0-3.4-1.2-3.6-3.8h12.9c0-0.6 0.1-1.2 0.1-1.7 0-5.9-3.8-9.7-9.2-9.7-5.5 0-9.4 3.8-9.4 10 0 6.2 3.9 10 9.4 10 4.6 0 7.8-2.9 8.7-6.7zm18.5 0.8c-0.1-7.3-10.2-5.1-10.2-8.2 0-0.9 0.8-1.5 2.1-1.5 1.6 0 2.6 0.9 2.7 2.2h5.3c-0.4-3.8-3.1-6.6-7.8-6.6-4.9 0-7.6 2.7-7.6 6 0 7.2 10.1 4.9 10.1 8.1 0 0.8-0.7 1.5-2.2 1.5-1.6 0-2.7-0.9-2.8-2.2h-5.6c0.2 3.7 3.5 6.6 8.5 6.6 4.6 0 7.5-2.5 7.5-5.9zm18.4 0c-0.1-7.3-10.1-5.1-10.1-8.2 0-0.9 0.8-1.5 2.1-1.5 1.6 0 2.5 0.9 2.7 2.2h5.2c-0.3-3.8-3-6.6-7.8-6.6-4.8 0-7.5 2.7-7.5 6 0 7.2 10.1 4.9 10.1 8.1 0 0.8-0.8 1.5-2.2 1.5-1.6 0-2.7-0.9-2.9-2.2h-5.6c0.3 3.7 3.6 6.6 8.5 6.6 4.7 0 7.5-2.5 7.5-5.9zm3.5 5.6h5.7v-14.7l5.2 14.7h4.6l5.2-14.7v14.7h5.6v-24.5h-6.6l-6.5 17-6.5-17h-6.7zm29.3-9.7c0 6.1 3.6 10 8.1 10 2.8 0 4.7-1.3 5.7-3v2.7h5.7v-19.5h-5.7v2.8c-1-1.7-2.9-3-5.7-3-4.5 0-8.1 3.8-8.1 10zm13.8 0c0 3.1-1.9 4.8-4 4.8-2.1 0-4-1.7-4-4.8 0-3.2 1.9-4.8 4-4.8 2.1 0 4 1.7 4 4.8zm15.5 0.7c0-3.4 1.5-4.3 4.2-4.3h1.6v-6.4c-2.5 0-4.5 1.4-5.8 3.5v-3.3h-5.7v19.5h5.7zm9.4 2.3c0 5.1 2.7 6.8 6.5 6.8h2.9v-5.1h-2c-1.3 0-1.8-0.5-1.8-1.6v-7.9h3.7v-4.9h-3.7v-4.8h-5.6v4.8h-2.3v4.9h2.3zm18.5 3.9c0-1.9-1.3-3.3-3.3-3.3-2 0-3.4 1.4-3.4 3.3 0 1.8 1.4 3.2 3.4 3.2 2 0 3.3-1.4 3.3-3.2z"/>
</svg>